ply
format ascii 1.0
comment VCGLIB generated
element vertex 228
property float x
property float y
property float z
element face 194
property list uchar int vertex_indices
end_header
4.94038 71.6291 26.3189 
-4.9404 71.6291 25.0407 
4.9404 52.7279 26.3189 
-4.94038 52.7279 25.0407 
8.88363 49.7168 23.1711 
8.88361 73.6336 23.1711 
-7.95282 49.7168 20.9931 
-7.95285 73.6336 20.9931 
-8.78332 49.7168 27.4133 
-8.78334 73.6336 27.4132 
8.05313 49.7168 29.5912 
8.05311 73.6336 29.5912 
3.1623 60.565 22.431 
3.12132 60.0928 22.4257 
2.99965 59.6349 22.4099 
2.80098 59.2053 22.3842 
2.53134 58.8171 22.3493 
2.19893 58.4819 22.3063 
1.81385 58.21 22.2565 
1.38779 58.0097 22.2014 
0.93371 57.887 22.1427 
2.24642 52.6905 22.3125 
0.465404 52.6094 22.0821 
-1.31561 52.6904 21.8517 
-0.002913 57.887 22.0215 
-0.456995 58.0097 21.9628 
-0.883051 58.21 21.9077 
-1.26813 58.4819 21.8578 
-1.60055 58.817 21.8148 
-1.87019 59.2053 21.78 
-2.06886 59.6349 21.7543 
-2.19053 60.0928 21.7385 
-2.2315 60.565 21.7332 
-2.19053 61.0372 21.7385 
-2.06886 61.4951 21.7543 
-1.87019 61.9247 21.78 
-1.60055 62.313 21.8148 
-1.26814 62.6482 21.8578 
-0.883056 62.9201 21.9077 
-0.457 63.1204 21.9628 
-0.002918 63.2431 22.0215 
0.465393 63.2844 22.0821 
0.933705 63.2431 22.1427 
1.38779 63.1204 22.2014 
1.81384 62.9201 22.2565 
2.19893 62.6482 22.3063 
2.53134 62.313 22.3493 
2.80098 61.9247 22.3842 
2.99965 61.4951 22.4099 
3.12132 61.0372 22.4257 
1.71011 56.6701 22.2431 
-0.779315 56.6701 21.9211 
2.3318 60.565 28.8511 
2.29082 60.0928 28.8458 
2.16915 59.6349 28.8301 
1.97048 59.2053 28.8043 
1.70084 58.8171 28.7695 
1.36843 58.4819 28.7265 
0.983349 58.21 28.6767 
0.557294 58.0097 28.6215 
0.103212 57.887 28.5628 
1.41592 52.6905 28.7326 
-0.365095 52.6094 28.5022 
-2.14611 52.6904 28.2718 
-0.833411 57.887 28.4416 
-1.28749 58.0097 28.3829 
-1.71355 58.21 28.3278 
-2.09863 58.4819 28.278 
-2.43105 58.817 28.235 
-2.70068 59.2053 28.2001 
-2.89936 59.6349 28.1744 
-3.02103 60.0928 28.1587 
-3.062 60.565 28.1534 
-3.02103 61.0372 28.1587 
-2.89936 61.4951 28.1744 
-2.70069 61.9247 28.2001 
-2.43105 62.313 28.235 
-2.09864 62.6482 28.278 
-1.71355 62.9201 28.3278 
-1.2875 63.1204 28.3829 
-0.833417 63.2431 28.4416 
-0.365105 63.2844 28.5022 
0.103206 63.2431 28.5628 
0.557289 63.1204 28.6215 
0.983345 62.9201 28.6767 
1.36843 62.6482 28.7265 
1.70084 62.313 28.7695 
1.97048 61.9247 28.8043 
2.16915 61.4951 28.83 
2.29082 61.0372 28.8458 
0.879617 56.6701 28.6632 
-1.60981 56.6701 28.3412 
3.1623 60.565 22.431 
3.12132 60.0928 22.4257 
2.99965 59.6349 22.4099 
2.80098 59.2053 22.3842 
2.53134 58.8171 22.3493 
2.19893 58.4819 22.3063 
1.81385 58.21 22.2565 
1.38779 58.0097 22.2014 
0.93371 57.887 22.1427 
2.24642 52.6905 22.3125 
0.465404 52.6094 22.0821 
-1.31561 52.6904 21.8517 
-0.002913 57.887 22.0215 
-0.456995 58.0097 21.9628 
-0.883051 58.21 21.9077 
-1.26813 58.4819 21.8578 
-1.60055 58.817 21.8148 
-1.87019 59.2053 21.78 
-2.06886 59.6349 21.7543 
-2.19053 60.0928 21.7385 
-2.2315 60.565 21.7332 
-2.19053 61.0372 21.7385 
-2.06886 61.4951 21.7543 
-1.87019 61.9247 21.78 
-1.60055 62.313 21.8148 
-1.26814 62.6482 21.8578 
-0.883056 62.9201 21.9077 
-0.457 63.1204 21.9628 
-0.002918 63.2431 22.0215 
0.465393 63.2844 22.0821 
0.933705 63.2431 22.1427 
1.38779 63.1204 22.2014 
1.81384 62.9201 22.2565 
2.19893 62.6482 22.3063 
2.53134 62.313 22.3493 
2.80098 61.9247 22.3842 
2.99965 61.4951 22.4099 
3.12132 61.0372 22.4257 
1.71011 56.6701 22.2431 
-0.779315 56.6701 21.9211 
2.3318 60.565 28.8511 
2.29082 60.0928 28.8458 
2.16915 59.6349 28.8301 
1.97048 59.2053 28.8043 
1.70084 58.8171 28.7695 
1.36843 58.4819 28.7265 
0.983349 58.21 28.6767 
0.557294 58.0097 28.6215 
0.103212 57.887 28.5628 
1.41592 52.6905 28.7326 
-0.365095 52.6094 28.5022 
-2.14611 52.6904 28.2718 
-0.833411 57.887 28.4416 
-1.28749 58.0097 28.3829 
-1.71355 58.21 28.3278 
-2.09863 58.4819 28.278 
-2.43105 58.817 28.235 
-2.70068 59.2053 28.2001 
-2.89936 59.6349 28.1744 
-3.02103 60.0928 28.1587 
-3.062 60.565 28.1534 
-3.02103 61.0372 28.1587 
-2.89936 61.4951 28.1744 
-2.70069 61.9247 28.2001 
-2.43105 62.313 28.235 
-2.09864 62.6482 28.278 
-1.71355 62.9201 28.3278 
-1.2875 63.1204 28.3829 
-0.833417 63.2431 28.4416 
-0.365105 63.2844 28.5022 
0.103206 63.2431 28.5628 
0.557289 63.1204 28.6215 
0.983345 62.9201 28.6767 
1.36843 62.6482 28.7265 
1.70084 62.313 28.7695 
1.97048 61.9247 28.8043 
2.16915 61.4951 28.83 
2.29082 61.0372 28.8458 
0.879617 56.6701 28.6632 
-1.60981 56.6701 28.3412 
99.4596 4.96055 -77.0795 
99.4595 79.9887 -77.0796 
-70.0376 4.96038 -99.0054 
-70.0376 79.9886 -99.0055 
-84.4291 4.96036 12.2476 
-84.4292 79.9886 12.2476 
85.068 4.96053 34.1735 
85.068 79.9887 34.1735 
84.1309 93.6747 -65.2625 
73.2508 93.6747 18.8448 
-69.1005 93.6745 0.430473 
-58.2205 93.6745 -83.6768 
99.4595 62.6207 -77.0796 
-70.0376 62.6205 -99.0055 
-84.4291 62.6205 12.2476 
85.068 62.6207 34.1735 
101.685 79.9887 -76.7917 
87.293 79.9887 34.4613 
101.685 62.6207 -76.7917 
87.293 62.6207 34.4613 
99.7473 79.9887 -79.3046 
-69.7498 79.9886 -101.231 
99.7474 62.6207 -79.3046 
-69.7498 62.6205 -101.231 
-72.2627 79.9886 -99.2933 
-86.6542 79.9885 11.9597 
-72.2627 62.6205 -99.2933 
-86.6542 62.6205 11.9598 
-84.717 79.9886 14.4726 
84.7801 79.9887 36.3986 
-84.717 62.6205 14.4726 
84.7802 62.6207 36.3986 
99.4595 79.9887 -77.0796 
-70.0376 79.9886 -99.0055 
-84.4292 79.9886 12.2476 
85.068 79.9887 34.1735 
99.4595 62.6207 -77.0796 
-70.0376 62.6205 -99.0055 
-84.4291 62.6205 12.2476 
85.068 62.6207 34.1735 
101.685 79.9887 -76.7917 
87.293 79.9887 34.4613 
101.685 62.6207 -76.7917 
87.293 62.6207 34.4613 
99.7473 79.9887 -79.3046 
-69.7498 79.9886 -101.231 
99.7474 62.6207 -79.3046 
-69.7498 62.6205 -101.231 
-72.2627 79.9886 -99.2933 
-86.6542 79.9885 11.9597 
-72.2627 62.6205 -99.2933 
-86.6542 62.6205 11.9598 
-84.717 79.9886 14.4726 
84.7801 79.9887 36.3986 
-84.717 62.6205 14.4726 
84.7802 62.6207 36.3986 
3 1 3 2 
3 1 2 0 
3 104 144 171 
3 104 171 131 
3 130 170 140 
3 130 140 100 
3 131 171 143 
3 131 143 103 
3 174 185 184 
3 174 184 172 
3 176 186 185 
3 176 185 174 
3 178 187 186 
3 178 186 176 
3 187 178 172 
3 187 172 184 
3 183 182 181 
3 183 181 180 
3 176 174 172 
3 176 172 178 
3 173 180 181 
3 173 181 179 
3 179 181 182 
3 179 182 177 
3 177 182 183 
3 177 183 175 
3 175 183 180 
3 175 180 173 
3 198 195 185 
3 203 187 191 
3 218 216 212 
3 218 212 214 
3 222 220 217 
3 222 217 219 
3 226 224 221 
3 226 221 223 
3 214 212 213 
3 214 213 215 
3 225 227 215 
3 225 215 213 
3 204 212 216 
3 220 205 217 
3 206 221 224 
3 225 213 207 
3 218 214 208 
3 219 217 216 
3 219 216 218 
3 223 221 220 
3 223 220 222 
3 227 225 224 
3 227 224 226 
3 226 223 210 
3 208 214 215 
3 208 215 211 
3 207 213 212 
3 207 212 204 
3 209 219 218 
3 209 218 208 
3 204 216 217 
3 204 217 205 
3 210 223 222 
3 210 222 209 
3 205 220 221 
3 205 221 206 
3 211 227 226 
3 211 226 210 
3 206 224 225 
3 206 225 207 
3 8 9 7 
3 8 7 6 
3 10 59 60 
3 10 60 90 
3 91 64 65 
3 10 52 53 
3 91 65 66 
3 10 53 54 
3 89 52 10 
3 89 10 11 
3 10 54 55 
3 10 58 59 
3 88 89 11 
3 10 55 56 
3 87 88 11 
3 10 57 58 
3 63 67 68 
3 86 87 11 
3 10 56 57 
3 63 91 66 
3 63 66 67 
3 85 86 11 
3 10 90 61 
3 63 68 69 
3 84 85 11 
3 8 63 69 
3 8 69 70 
3 83 84 11 
3 8 10 61 
3 8 61 62 
3 8 70 71 
3 82 83 11 
3 8 62 63 
3 9 81 82 
3 9 82 11 
3 80 81 9 
3 9 8 71 
3 9 71 72 
3 79 80 9 
3 9 72 73 
3 78 79 9 
3 9 73 74 
3 77 78 9 
3 9 74 75 
3 76 77 9 
3 75 76 9 
3 4 5 11 
3 4 11 10 
3 7 9 11 
3 7 11 5 
3 8 6 4 
3 8 4 10 
3 93 133 132 
3 93 132 92 
3 94 134 133 
3 94 133 93 
3 95 135 134 
3 95 134 94 
3 96 136 135 
3 96 135 95 
3 97 137 136 
3 97 136 96 
3 137 97 98 
3 137 98 138 
3 138 98 99 
3 138 99 139 
3 139 99 100 
3 139 100 140 
3 141 101 102 
3 141 102 142 
3 142 102 103 
3 142 103 143 
3 144 104 105 
3 144 105 145 
3 145 105 106 
3 145 106 146 
3 146 106 107 
3 146 107 147 
3 108 148 147 
3 108 147 107 
3 109 149 148 
3 109 148 108 
3 110 150 149 
3 110 149 109 
3 111 151 150 
3 111 150 110 
3 112 152 151 
3 112 151 111 
3 113 153 152 
3 113 152 112 
3 114 154 153 
3 114 153 113 
3 115 155 154 
3 115 154 114 
3 116 156 155 
3 116 155 115 
3 117 157 156 
3 117 156 116 
3 118 158 157 
3 118 157 117 
3 119 159 158 
3 119 158 118 
3 120 160 159 
3 120 159 119 
3 121 161 160 
3 121 160 120 
3 122 162 161 
3 122 161 121 
3 123 163 162 
3 123 162 122 
3 124 164 163 
3 124 163 123 
3 125 165 164 
3 125 164 124 
3 126 166 165 
3 126 165 125 
3 127 167 166 
3 127 166 126 
3 128 168 167 
3 128 167 127 
3 129 169 168 
3 129 168 128 
3 92 132 169 
3 92 169 129 
3 101 141 170 
3 101 170 130 
